<?xml version="1.0" encoding="UTF-8"?>
<svg width="234px" height="130px" viewBox="0 0 234 130" version="1.1" xmlns="http://www.w3.org/2000/svg" xmlns:xlink="http://www.w3.org/1999/xlink">
    <title>powerball + powerplay</title>
    <defs>
        <linearGradient x1="50.0098849%" y1="-4.78233533%" x2="50.0098849%" y2="84.8613772%" id="linearGradient-1">
            <stop stop-color="#E1071B" offset="0%"></stop>
            <stop stop-color="#E2161E" offset="0.9619121%"></stop>
            <stop stop-color="#E53A31" offset="6.851219%"></stop>
            <stop stop-color="#E85042" offset="13.11%"></stop>
            <stop stop-color="#EA604F" offset="19.84%"></stop>
            <stop stop-color="#EC6857" offset="27.36%"></stop>
            <stop stop-color="#EC6B5A" offset="37.3%"></stop>
            <stop stop-color="#E1071B" offset="100%"></stop>
        </linearGradient>
    </defs>
    <g id="Bg" stroke="none" stroke-width="1" fill="none" fill-rule="evenodd">
        <g id="Logos" transform="translate(-974.000000, -460.000000)">
            <g id="powerball-+-powerplay" transform="translate(974.000000, 460.000000)">
                <rect id="Rectangle" x="0" y="0" width="234" height="130" rx="2"></rect>
                <g id="Group-8" transform="translate(13.000000, 39.000000)" fill-rule="nonzero">
                    <g id="Group" transform="translate(0.000000, 15.888889)">
                        <path d="M194.688,35.5911111 L55.64,35.5911111 C55.016,35.5911111 54.392,35.0711111 54.392,34.3431111 L54.392,2.10311111 C54.392,1.47911111 54.912,0.855111111 55.64,0.855111111 L194.688,0.855111111 C202.072,0.855111111 208,6.78311111 208,14.1671111 L208,22.2791111 C208,29.6631111 202.072,35.5911111 194.688,35.5911111 Z" id="Path" fill="url(#linearGradient-1)"></path>
                        <g transform="translate(0.000000, 0.751111)">
                            <path d="M152.36,34.84 L17.368,34.84 C7.8,34.84 3.69482223e-15,27.04 3.69482223e-15,17.472 L3.69482223e-15,17.472 C3.69482223e-15,7.904 7.8,0.104 17.368,0.104 L152.36,0.104 C152.984,0.104 153.608,0.624 153.608,1.352 L153.608,33.592 C153.608,34.32 152.984,34.84 152.36,34.84 Z" id="Path" fill="#FFFFFF"></path>
                            <path d="M151.944,1.456 C152.152,1.456 152.256,1.664 152.256,1.768 L152.256,33.28 C152.256,33.488 152.048,33.592 151.944,33.592 L17.368,33.592 C8.528,33.592 1.248,26.416 1.248,17.472 C1.248,8.632 8.424,1.352 17.368,1.352 L151.944,1.352 M151.944,0.208 L17.368,0.208 C7.8,0.208 3.69482223e-15,8.008 3.69482223e-15,17.576 L3.69482223e-15,17.576 C3.69482223e-15,27.144 7.8,34.944 17.368,34.944 L152.048,34.944 C152.88,34.944 153.608,34.216 153.608,33.384 L153.608,1.872 C153.608,0.936 152.88,0.208 151.944,0.208 L151.944,0.208 Z" id="Shape" fill="#020203"></path>
                        </g>
                        <g transform="translate(13.520000, 9.071111)" fill="#020203">
                            <path d="M13.104,6.24 C13.104,7.384 12.688,8.528 11.856,9.568 C11.44,10.088 10.712,10.608 9.88,10.92 C9.048,11.232 8.008,11.44 6.76,11.44 L4.16,11.44 L4.16,18.2 L0,18.2 L0,0.936 L6.76,0.936 C8.736,0.936 10.296,1.456 11.44,2.496 C12.48,3.536 13.104,4.784 13.104,6.24 Z M4.16,8.32 L6.76,8.32 C7.384,8.32 7.904,8.112 8.32,7.8 C8.736,7.384 8.84,6.968 8.84,6.344 C8.84,5.72 8.632,5.2 8.32,4.784 C7.904,4.368 7.488,4.16 6.864,4.16 L4.16,4.16 L4.16,8.32 Z" id="Shape"></path>
                            <path d="M26.104,15.808 C24.44,14.144 23.504,12.064 23.504,9.464 C23.504,6.864 24.336,4.784 26.104,3.12 C27.768,1.456 29.952,0.624 32.344,0.624 C34.84,0.624 36.92,1.456 38.584,3.12 C40.248,4.784 41.08,6.864 41.08,9.464 C41.08,12.064 40.248,14.144 38.48,15.808 C36.816,17.472 34.736,18.304 32.24,18.304 C29.744,18.304 27.872,17.472 26.104,15.808 Z M35.672,13.104 C36.504,12.168 36.92,11.024 36.92,9.464 C36.92,8.008 36.504,6.76 35.672,5.824 C34.84,4.888 33.696,4.472 32.344,4.472 C30.992,4.472 29.848,4.888 29.016,5.824 C28.184,6.76 27.768,7.904 27.768,9.464 C27.768,10.92 28.184,12.168 29.016,13.104 C29.848,14.04 30.992,14.456 32.344,14.456 C33.8,14.456 34.84,14.04 35.672,13.104 Z" id="Shape"></path>
                            <polygon id="Path" points="72.072 0.936 76.544 0.936 71.76 18.2 66.976 18.2 63.96 7.28 60.944 18.2 56.16 18.2 51.272 0.936 55.744 0.936 58.76 13.312 61.88 0.936 66.56 0.936 69.472 13.104"></polygon>
                            <polygon id="Path" points="97.968 0.832 97.968 4.056 91.728 4.056 91.728 7.8 97.24 7.8 97.24 11.024 91.728 11.024 91.728 15.08 97.968 15.08 97.968 18.304 87.568 18.304 87.568 1.04 97.968 1.04"></polygon>
                            <path d="M114.816,11.44 L114.816,18.2 L110.656,18.2 L110.656,0.936 L117.416,0.936 C119.392,0.936 120.952,1.456 122.096,2.496 C123.24,3.536 123.76,4.784 123.76,6.24 C123.76,7.28 123.448,8.216 122.824,9.152 C122.2,10.088 121.264,10.816 119.808,11.128 L124.072,18.2 L119.184,18.2 L115.336,11.44 L114.816,11.44 L114.816,11.44 Z M114.816,4.16 L114.816,8.32 L117.416,8.32 C118.04,8.32 118.56,8.112 118.976,7.8 C119.392,7.384 119.496,6.968 119.496,6.344 C119.496,5.72 119.288,5.2 118.976,4.784 C118.56,4.368 118.144,4.16 117.52,4.16 L114.816,4.16 Z" id="Shape"></path>
                        </g>
                        <g transform="translate(159.120000, 10.111111)" fill="#FFFFFF">
                            <path d="M0.832,16.952 L0.832,0.104 L5.2,0.104 C6.76,0.104 8.008,0.52 8.84,1.248 C9.672,1.976 10.192,3.12 10.192,4.68 C10.192,5.512 9.984,6.136 9.672,6.76 C9.36,7.384 8.84,7.8 8.216,8.112 C9.048,8.32 9.672,8.736 10.088,9.464 C10.504,10.192 10.712,11.024 10.712,11.96 C10.712,13.52 10.296,14.768 9.464,15.6 C8.632,16.432 7.384,16.848 5.928,16.848 L0.832,16.848 L0.832,16.952 Z M3.744,7.28 L5.304,7.28 C5.928,7.28 6.448,7.072 6.76,6.656 C7.072,6.24 7.28,5.72 7.28,4.992 C7.28,4.16 7.072,3.64 6.76,3.224 C6.448,2.808 5.928,2.704 5.2,2.704 L3.848,2.704 L3.848,7.28 L3.744,7.28 Z M3.744,9.568 L3.744,14.456 L5.928,14.456 C6.552,14.456 7.072,14.248 7.384,13.832 C7.696,13.416 7.904,12.896 7.904,12.064 C7.904,11.232 7.8,10.608 7.488,10.192 C7.176,9.776 6.76,9.568 6.136,9.464 L6.032,9.464 L3.744,9.464 L3.744,9.568 Z" id="Shape"></path>
                            <path d="M19.344,13.312 L15.6,13.312 L14.768,16.952 L11.752,16.952 L16.016,0.104 L19.032,0.104 L23.296,16.952 L20.28,16.952 L19.344,13.312 Z M16.224,10.712 L18.824,10.712 L17.576,5.408 L17.472,5.408 L16.224,10.712 Z" id="Shape"></path>
                            <polygon id="Path" points="27.352 14.456 32.968 14.456 32.968 16.952 24.44 16.952 24.44 0.104 27.352 0.104 27.352 14.456"></polygon>
                            <polygon id="Path" points="37.648 14.456 43.264 14.456 43.264 16.952 34.736 16.952 34.736 0.104 37.648 0.104 37.648 14.456"></polygon>
                        </g>
                    </g>
                    <g id="Group" transform="translate(127.111111, -0.000000)" fill="#000000">
                        <g transform="translate(0.000000, 2.294118)">
                            <path d="M0,7.95294118 L1.52941176,0.458823529 L4.66470588,0.458823529 C5.39117647,0.458823529 6.00294118,0.688235294 6.46176471,1.14705882 C6.92058824,1.60588235 7.18823529,2.14117647 7.18823529,2.86764706 C7.18823529,3.63235294 6.88235294,4.32058824 6.30882353,4.93235294 C5.73529412,5.50588235 5.04705882,5.81176471 4.20588235,5.81176471 L2.48529412,5.81176471 L2.06470588,7.99117647 L0,7.99117647 L0,7.95294118 Z M2.86764706,3.93823529 L4.28235294,3.93823529 C4.77941176,3.93823529 5.16176471,3.47941176 5.16176471,3.02058824 C5.16176471,2.63823529 4.85588235,2.33235294 4.43529412,2.33235294 L3.21176471,2.33235294 L2.86764706,3.93823529 Z" id="Shape"></path>
                            <path d="M7.95294118,2.52352941 C8.33529412,1.87352941 8.90882353,1.33823529 9.59705882,0.955882353 C10.2852941,0.573529412 11.05,0.344117647 11.8911765,0.344117647 C13,0.344117647 13.9558824,0.688235294 14.6823529,1.33823529 C15.4088235,1.98823529 15.7911765,2.82941176 15.7911765,3.86176471 C15.7911765,4.97058824 15.3705882,5.96470588 14.4911765,6.80588235 C13.65,7.64705882 12.5794118,8.06764706 11.2794118,8.06764706 C10.1323529,8.06764706 9.21470588,7.76176471 8.48823529,7.07352941 C7.76176471,6.42352941 7.37941176,5.58235294 7.37941176,4.55 C7.37941176,3.86176471 7.57058824,3.17352941 7.95294118,2.52352941 Z M9.97941176,5.77352941 C10.3235294,6.11764706 10.7823529,6.27058824 11.3558824,6.27058824 C12.0058824,6.27058824 12.5411765,6.04117647 12.9617647,5.58235294 C13.4205882,5.12352941 13.65,4.58823529 13.65,4.01470588 C13.65,3.47941176 13.4588235,3.02058824 13.1147059,2.67647059 C12.7705882,2.33235294 12.3117647,2.14117647 11.7382353,2.14117647 C11.1264706,2.14117647 10.5911765,2.37058824 10.1323529,2.82941176 C9.67352941,3.28823529 9.44411765,3.82352941 9.44411765,4.43529412 C9.48235294,5.00882353 9.63529412,5.42941176 9.97941176,5.77352941 Z" id="Shape"></path>
                            <polygon id="Path" points="16.9764706 8.25882353 15.7147059 0.458823529 17.7029412 0.458823529 18.2764706 3.9 20.9147059 0.497058824 21.9470588 3.74705882 23.8970588 0.458823529 26.1147059 0.458823529 21.5264706 8.25882353 20.2264706 4.09117647"></polygon>
                            <polygon id="Path" points="25.1205882 7.95294118 26.65 0.458823529 32.1558824 0.458823529 31.7735294 2.29411765 28.2941176 2.29411765 28.0647059 3.32647059 31.3147059 3.32647059 30.9705882 5.00882353 27.7205882 5.00882353 27.4911765 6.15588235 31.0470588 6.15588235 30.6647059 7.95294118"></polygon>
                            <path d="M31.3911765,7.95294118 L32.9205882,0.458823529 L36.0941176,0.458823529 C36.8205882,0.458823529 37.3941176,0.688235294 37.8529412,1.10882353 C38.3117647,1.52941176 38.5411765,2.10294118 38.5411765,2.75294118 C38.5411765,3.28823529 38.3882353,3.78529412 38.0823529,4.28235294 C37.7764706,4.74117647 37.3558824,5.12352941 36.8588235,5.35294118 L38.0823529,7.95294118 L35.8647059,7.95294118 L34.8323529,5.62058824 L33.9529412,5.62058824 L33.4941176,7.95294118 L31.3911765,7.95294118 L31.3911765,7.95294118 Z M34.2205882,3.97647059 L35.5205882,3.97647059 C36.0176471,3.97647059 36.4382353,3.51764706 36.4382353,3.02058824 C36.4382353,2.6 36.1323529,2.29411765 35.6735294,2.29411765 L34.5647059,2.29411765 L34.2205882,3.97647059 Z" id="Shape"></path>
                        </g>
                        <path d="M75.4764706,1.07058824 L73.5647059,11.9294118 L41.3705882,11.9294118 L43.2823529,1.07058824 L75.4764706,1.07058824 M76.4705882,0.229411765 L42.5941176,0.229411765 L40.3764706,12.7705882 L74.2529412,12.7705882 L76.4705882,0.229411765 L76.4705882,0.229411765 Z" id="Shape"></path>
                        <g transform="translate(44.735294, 1.911765)">
                            <path d="M0.114705882,8.33529412 L1.64411765,0.841176471 L4.77941176,0.841176471 C5.50588235,0.841176471 6.11764706,1.07058824 6.57647059,1.52941176 C7.03529412,1.98823529 7.30294118,2.52352941 7.30294118,3.25 C7.30294118,4.01470588 6.99705882,4.70294118 6.42352941,5.31470588 C5.85,5.88823529 5.16176471,6.19411765 4.32058824,6.19411765 L2.6,6.19411765 L2.17941176,8.37352941 L0.114705882,8.37352941 L0.114705882,8.33529412 Z M2.94411765,4.32058824 L4.35882353,4.32058824 C4.85588235,4.32058824 5.23823529,3.86176471 5.23823529,3.40294118 C5.23823529,3.02058824 4.93235294,2.71470588 4.51176471,2.71470588 L3.28823529,2.71470588 L2.94411765,4.32058824 Z" id="Shape"></path>
                            <polygon id="Path" points="6.88235294 8.33529412 8.41176471 0.841176471 10.4382353 0.841176471 9.29117647 6.46176471 12.1205882 6.46176471 11.7382353 8.29705882 6.88235294 8.29705882"></polygon>
                            <path d="M14.5294118,8.33529412 L12.3882353,8.33529412 L18.1617647,0.344117647 L20.6852941,8.33529412 L18.6970588,8.33529412 L18.4294118,7.34117647 L15.2176471,7.34117647 L14.5294118,8.33529412 Z M16.25,5.77352941 L18.0088235,5.77352941 L17.5117647,3.97647059 L16.25,5.77352941 Z" id="Shape"></path>
                            <polygon id="Path" points="21.2588235 8.33529412 21.7941176 5.69705882 19.9588235 0.879411765 22.1 0.879411765 23.1323529 3.67058824 25.2735294 0.879411765 27.6441176 0.879411765 23.8205882 5.85 23.3235294 8.33529412"></polygon>
                        </g>
                    </g>
                </g>
            </g>
        </g>
    </g>
</svg>